<svg xmlns="http://www.w3.org/2000/svg" viewBox="0 0 640 160" role="img" aria-label="Ribbontech">
  <rect width="640" height="160" fill="#000000"/>
  <!-- RIBBON -->
  <text x="28" y="78" fill="#2F7FE0" font-family="Arial Narrow, Arial, Helvetica, sans-serif" font-size="58" font-weight="800" letter-spacing="-1.5">RIBBON</text>
  <!-- Ribbon bar + barcode under RIBBON -->
  <path d="M28 96
           C18 96 14 108 28 108
           H255
           V118
           H28
           C8 118 4 96 28 96
           Z" fill="#2F7FE0"/>
  <g fill="#0A0A0A">
    <rect x="168" y="99" width="3" height="16"/>
    <rect x="174" y="99" width="2" height="16"/>
    <rect x="179" y="99" width="5" height="16"/>
    <rect x="187" y="99" width="2" height="16"/>
    <rect x="192" y="99" width="3" height="16"/>
    <rect x="198" y="99" width="2" height="16"/>
    <rect x="203" y="99" width="6" height="16"/>
    <rect x="212" y="99" width="2" height="16"/>
    <rect x="217" y="99" width="4" height="16"/>
    <rect x="224" y="99" width="2" height="16"/>
    <rect x="229" y="99" width="3" height="16"/>
    <rect x="235" y="99" width="2" height="16"/>
    <rect x="240" y="99" width="5" height="16"/>
    <rect x="248" y="99" width="2" height="16"/>
  </g>
  <!-- TECH (tall thin) -->
  <text x="275" y="118" fill="#C8CDD3" font-family="Arial Narrow, Arial, Helvetica, sans-serif" font-size="96" font-weight="300" letter-spacing="2">TECH</text>
</svg>
